# xmcd CD database file
#
# Track frame offsets:
#	150
#	11699
#	24423
#	39273
#	51816
#	74016
#	90698
#	107577
#	127886
#	143937
#	158575
#	173582
#	189771
#	204373
#	216938
#	240057
#	258690
#	279148
#	292698
#	306810
#
# Disc length: 4322 seconds
#
# Revision: 0
# Processed by: cddbd v1.5PL3 Copyright (c) Steve Scherf et al.
# Submitted via: CDex 1.51
#
DISCID=0210e014
DTITLE=Mari Trini - Los Años Jovenes
DYEAR=1900
DGENRE=Español
TTITLE0=Yo no soy esa
TTITLE1=Cuando me acaricias
TTITLE2=Amores
TTITLE3=Que quieres que te diga corazon
TTITLE4=Una estrella en mi jardin
TTITLE5=Lunas de papel
TTITLE6=Como una isla tu cuerpo
TTITLE7=No pasa nada
TTITLE8=Vuelve
TTITLE9=Mira
TTITLE10=Las sombras nos acosan al amanecer
TTITLE11=Para quererse
TTITLE12=Voy vagando por la vida
TTITLE13=Pobre inocente
TTITLE14=Chaval
TTITLE15=Sin un adios
TTITLE16=Es que te quiero
TTITLE17=No estoy llorando
TTITLE18=Amor a los cuarenta
TTITLE19=Avec le temps
EXTD=
EXTT0=
EXTT1=
EXTT2=
EXTT3=
EXTT4=
EXTT5=
EXTT6=
EXTT7=
EXTT8=
EXTT9=
EXTT10=
EXTT11=
EXTT12=
EXTT13=
EXTT14=
EXTT15=
EXTT16=
EXTT17=
EXTT18=
EXTT19=
PLAYORDER=
